<?xml version="1.0" standalone="no"?>
<!DOCTYPE svg PUBLIC "-//W3C//DTD SVG 20010904//EN"
 "http://www.w3.org/TR/2001/REC-SVG-20010904/DTD/svg10.dtd">
<svg version="1.0" xmlns="http://www.w3.org/2000/svg"
 width="736.000000pt" height="736.000000pt" viewBox="0 0 736.000000 736.000000"
 preserveAspectRatio="xMidYMid meet">
<metadata>
Created by potrace 1.11, written by Peter Selinger 2001-2013
</metadata>
<g transform="translate(0.000000,736.000000) scale(0.100000,-0.100000)"
fill="#000000" stroke="none">
<path d="M3520 7341 c-49 -16 -219 -68 -245 -75 -7 -2 -10 -247 -11 -709 0
-682 0 -707 18 -713 34 -11 97 -84 109 -126 45 -168 -113 -305 -269 -233 -139
64 -150 253 -21 340 l45 30 -1 677 c0 372 -3 679 -7 683 -5 6 -114 -25 -393
-112 -44 -13 -87 -26 -95 -28 -8 -2 -31 -9 -50 -15 -19 -7 -48 -15 -65 -20
-16 -4 -90 -27 -164 -50 -74 -23 -141 -43 -150 -45 -9 -2 -29 -8 -46 -14 -138
-44 -433 -133 -442 -134 -7 0 -13 -3 -13 -7 0 -5 104 -133 135 -166 5 -6 26
-30 45 -54 19 -24 42 -51 51 -59 8 -9 37 -43 65 -76 27 -33 99 -118 159 -190
61 -71 118 -139 127 -150 54 -65 65 -73 103 -78 113 -17 135 -172 31 -221 -79
-37 -173 28 -164 114 2 22 1 41 -2 42 -3 2 -34 38 -69 81 -35 42 -68 77 -74
77 -6 0 -7 3 -4 6 4 4 -1 14 -11 23 -10 9 -61 68 -114 131 -52 63 -104 125
-114 137 -25 28 -85 101 -104 125 -8 11 -26 32 -40 46 -14 15 -47 54 -75 87
-27 33 -55 66 -62 73 -11 11 -44 4 -185 -38 -95 -29 -179 -55 -186 -59 -9 -5
-4 -18 20 -46 18 -21 64 -75 102 -119 37 -45 78 -92 90 -106 11 -14 55 -66 96
-115 41 -50 80 -96 87 -103 7 -7 29 -34 50 -60 21 -26 43 -51 49 -57 6 -5 33
-37 60 -70 27 -33 56 -68 65 -78 26 -29 29 -64 7 -87 -10 -11 -24 -20 -31 -21
-7 0 -263 -1 -570 -1 l-559 -1 7 -81 c11 -134 15 -180 19 -183 2 -2 438 -4
970 -4 545 0 977 -4 990 -9 33 -12 48 -29 239 -263 93 -114 173 -209 178 -212
5 -4 42 -7 83 -8 62 -2 81 -7 122 -33 55 -33 118 -111 130 -158 53 -221 -144
-411 -352 -340 -77 26 -150 98 -169 167 -2 4 -3 8 -5 10 -13 16 -14 101 -1
159 10 45 6 59 -35 103 -11 11 -37 43 -59 70 -21 28 -42 52 -45 55 -3 3 -21
25 -40 50 -19 25 -43 54 -53 65 -11 11 -31 36 -45 55 -15 19 -31 38 -37 42 -5
4 -425 8 -932 8 l-922 0 4 -27 c2 -16 6 -71 10 -123 4 -52 8 -106 10 -120 2
-14 4 -36 4 -50 l1 -25 821 0 c530 0 829 -3 844 -10 13 -5 57 -53 99 -105 42
-52 84 -104 94 -115 24 -29 130 -159 261 -318 62 -77 114 -149 117 -160 6 -31
-14 -73 -39 -84 -31 -14 -1216 -11 -1240 3 -10 5 -35 32 -57 60 -22 27 -46 56
-53 64 -7 8 -44 53 -82 100 -39 47 -77 93 -87 103 -42 47 -22 120 36 133 17 4
139 8 271 8 l240 1 44 43 c24 23 51 43 60 43 66 6 90 4 121 -8 123 -49 145
-209 40 -296 -67 -57 -176 -46 -235 24 l-28 34 -163 0 c-116 0 -161 -3 -156
-10 4 -7 33 -43 66 -82 l58 -71 479 0 c264 -1 479 0 479 2 0 2 -8 12 -17 23
-10 12 -31 38 -48 59 -47 60 -89 109 -97 112 -5 2 -8 8 -8 14 0 5 -6 15 -12
22 -7 7 -29 32 -48 55 -19 23 -43 52 -53 64 -11 12 -39 47 -64 78 l-46 56
-791 -1 c-521 -1 -791 -4 -790 -11 1 -5 5 -48 8 -95 4 -47 9 -107 11 -135 3
-27 7 -77 10 -110 11 -143 16 -202 20 -240 2 -22 7 -76 11 -120 4 -44 8 -91 9
-105 2 -14 3 -30 4 -35 1 -7 204 -10 604 -9 565 0 630 -2 647 -26 9 -12 64
-81 83 -104 10 -11 31 -36 45 -55 15 -19 32 -39 37 -45 6 -6 49 -58 95 -116
46 -58 87 -107 90 -110 4 -3 23 -26 42 -52 33 -43 36 -51 33 -105 -2 -32 -6
-116 -10 -188 -3 -71 -8 -165 -10 -208 -4 -71 -2 -82 21 -116 37 -57 37 -105
-2 -150 -43 -51 -120 -54 -169 -6 -46 47 -46 117 2 168 21 21 28 39 30 75 8
198 14 326 18 381 l5 64 -77 96 c-42 53 -79 98 -83 101 -3 3 -35 41 -70 85
-73 90 -93 114 -133 161 l-27 32 -555 0 -555 0 21 -27 c11 -14 35 -42 52 -61
18 -19 52 -60 77 -90 25 -30 47 -57 50 -60 3 -3 53 -61 110 -130 133 -158 139
-165 191 -226 24 -28 53 -62 64 -75 88 -105 173 -206 185 -219 8 -9 24 -27 35
-41 33 -39 228 -272 252 -299 37 -43 57 -66 95 -111 20 -24 46 -55 57 -69 12
-14 41 -47 64 -75 23 -27 53 -61 67 -75 l25 -25 398 1 399 1 25 29 c14 16 39
46 56 68 18 21 43 51 57 66 14 15 34 39 45 52 32 41 98 118 132 157 21 24 29
41 24 51 -5 8 -7 44 -6 80 7 305 418 379 526 95 13 -35 17 -67 14 -123 l-3
-75 160 -191 c89 -105 164 -195 169 -200 4 -5 183 -9 406 -10 l398 -1 35 35
c19 19 55 59 80 89 48 58 109 130 144 171 29 34 177 210 201 239 11 14 27 32
35 40 8 9 35 41 60 71 25 30 49 60 55 66 13 14 78 92 151 179 32 39 61 72 64
75 3 3 27 32 55 65 27 33 52 62 55 65 3 3 28 32 55 65 28 33 52 62 55 65 3 3
28 32 55 65 28 33 52 62 55 65 3 3 27 32 55 65 27 33 52 62 55 65 3 3 36 42
73 87 65 78 67 83 71 145 3 34 7 86 10 113 3 28 8 82 11 120 3 39 7 95 10 125
11 113 13 171 6 168 -4 -2 -45 -48 -91 -103 -47 -55 -89 -105 -95 -111 -5 -6
-26 -30 -45 -54 -19 -24 -40 -48 -45 -54 -6 -6 -39 -45 -74 -86 -34 -41 -80
-95 -101 -120 -21 -25 -69 -81 -106 -125 -37 -44 -86 -102 -109 -130 -93 -108
-171 -201 -190 -224 -65 -78 -151 -177 -160 -183 -5 -4 -150 -8 -321 -8 -270
0 -313 -2 -325 -16 -17 -21 -64 -44 -89 -44 -32 0 -83 27 -99 52 -31 50 -20
123 24 160 44 36 118 30 156 -13 17 -20 28 -21 309 -20 l290 0 24 28 c13 15
32 38 42 50 11 12 28 32 38 45 11 12 31 37 45 54 14 16 44 52 66 78 22 26 49
58 60 70 23 26 80 93 162 191 81 97 106 126 123 145 8 9 33 38 55 65 21 28 42
52 45 55 3 3 30 34 60 70 30 36 61 72 70 81 8 9 22 25 30 35 8 11 74 89 147
175 134 159 140 171 134 245 -1 15 -1572 15 -1586 0 -6 -6 -26 -31 -45 -56
-19 -25 -37 -47 -40 -50 -3 -3 -38 -45 -78 -95 -40 -49 -83 -101 -96 -115 -12
-14 -46 -55 -74 -92 l-53 -67 481 0 480 0 58 72 c32 40 61 77 64 82 4 7 -49
10 -157 10 l-163 -1 -28 -33 c-49 -58 -125 -76 -195 -47 -125 52 -142 228 -30
302 74 49 175 34 232 -33 l25 -30 235 -1 c299 0 282 1 309 -22 45 -39 34 -79
-47 -177 -18 -21 -63 -76 -100 -122 -37 -46 -82 -100 -100 -120 l-32 -36 -606
-1 c-566 0 -608 1 -635 18 -17 10 -31 26 -31 35 -4 40 1 64 13 77 7 8 27 31
43 51 28 35 125 154 163 200 10 11 46 56 81 100 36 44 71 87 78 95 16 18 30
35 108 133 33 42 71 80 85 84 14 5 391 9 838 8 448 0 816 4 819 8 6 9 9 37 17
152 3 39 8 96 11 128 l5 57 -918 0 -917 0 -95 -117 c-52 -64 -104 -128 -115
-141 -11 -14 -42 -51 -69 -84 -41 -50 -47 -63 -41 -86 5 -15 8 -61 8 -102 1
-85 -18 -133 -75 -189 -52 -52 -104 -74 -181 -77 -162 -8 -287 116 -282 276 4
114 60 200 160 246 49 22 141 34 162 21 6 -4 30 16 55 45 23 29 47 58 53 64 5
6 21 26 35 44 14 18 30 38 36 44 6 7 51 61 100 121 49 61 95 118 104 128 39
47 9 46 1029 45 529 0 964 2 967 5 5 5 8 36 19 167 4 47 8 102 10 123 3 24 0
37 -8 38 -7 1 -319 2 -694 3 -545 1 -685 4 -695 14 -10 10 -13 67 -13 241 l0
228 50 59 c27 32 52 61 55 64 3 3 38 45 78 93 41 48 83 98 95 112 12 13 32 37
44 52 12 15 31 39 43 51 12 13 18 27 14 31 -9 8 -257 87 -304 97 -13 3 -26 7
-29 9 -5 5 -38 -31 -121 -131 -35 -44 -71 -86 -80 -95 -18 -19 -44 -51 -83
-99 -16 -19 -48 -57 -72 -85 -43 -50 -425 -502 -494 -584 -20 -24 -46 -55 -59
-70 -46 -52 -54 -68 -43 -90 35 -64 12 -170 -49 -225 -80 -72 -200 -69 -266 6
-53 60 -65 104 -51 190 6 37 17 54 51 86 52 48 96 62 169 56 52 -5 55 -4 81
31 15 19 37 46 49 60 12 13 38 43 58 67 42 51 316 375 365 433 19 22 39 46 45
54 44 52 124 147 129 151 3 3 27 32 55 65 27 33 54 65 60 71 5 6 28 32 50 59
22 27 48 57 57 67 10 9 14 19 9 22 -11 7 -94 35 -117 39 -10 2 -26 7 -34 10
-8 4 -96 31 -195 61 -99 30 -234 70 -300 90 -66 20 -147 45 -180 55 -33 11
-107 34 -165 51 -58 17 -161 49 -230 70 -69 21 -134 40 -145 42 -20 3 -20 -7
-20 -1929 l0 -1933 35 -22 c69 -45 99 -154 65 -236 -34 -79 -99 -120 -185
-117 -173 6 -252 208 -129 333 22 23 44 42 48 42 4 0 8 871 8 1935 0 1064 -3
1935 -6 1935 -3 -1 -31 -9 -61 -19z"/>
<path d="M5718 6730 c-10 -11 -18 -24 -18 -29 0 -5 -4 -11 -9 -13 -5 -1 -37
-37 -71 -78 -34 -41 -65 -77 -69 -80 -3 -3 -26 -30 -51 -60 -25 -30 -50 -61
-57 -68 -7 -7 -29 -34 -50 -60 -21 -26 -42 -50 -47 -53 -7 -5 -10 -121 -7
-291 l1 -36 575 0 c317 0 578 -2 581 -5 3 -3 18 -2 32 2 15 4 48 6 75 5 42 -3
47 -1 48 19 1 12 2 36 4 52 1 17 6 65 9 108 l7 77 -421 0 c-267 0 -420 -4
-420 -10 0 -17 -51 -44 -87 -47 -64 -5 -120 42 -125 104 -3 41 29 99 63 116
26 12 41 13 94 8 6 -1 23 -12 39 -26 16 -14 36 -25 45 -26 9 0 195 -1 415 -1
266 0 400 3 405 10 3 6 6 34 6 63 l0 53 -110 33 c-60 19 -155 48 -209 65 -54
16 -104 31 -110 32 -6 2 -42 13 -81 25 -129 41 -400 123 -420 127 -11 2 -28
-6 -37 -16z"/>
<path d="M975 6565 c-60 -19 -159 -49 -220 -67 l-110 -34 1 -44 c1 -25 5 -83
9 -130 9 -104 11 -131 20 -241 3 -47 8 -94 10 -105 2 -10 4 -26 4 -34 1 -13
62 -15 493 -14 373 0 492 4 490 12 -1 7 -13 25 -26 40 -13 15 -90 106 -171
202 -81 96 -169 200 -195 230 -26 30 -78 91 -115 135 -37 44 -70 81 -74 82 -3
1 -55 -13 -116 -32z"/>
<path d="M3140 4939 c-150 -32 -210 -184 -123 -311 99 -145 339 -72 348 105 5
104 -57 184 -160 207 -16 3 -46 3 -65 -1z"/>
<path d="M4143 4939 c-123 -22 -195 -153 -147 -267 54 -129 219 -164 316 -67
135 135 17 367 -169 334z"/>
<path d="M904 3348 c5 -22 12 -100 22 -231 5 -69 11 -140 18 -222 6 -58 13
-138 21 -240 3 -27 7 -75 10 -105 2 -30 8 -91 11 -135 4 -44 8 -91 9 -105 2
-14 3 -34 4 -45 1 -11 13 -33 29 -50 15 -16 47 -55 72 -85 25 -30 52 -61 60
-70 8 -9 33 -38 55 -64 22 -27 94 -113 160 -191 66 -78 139 -164 162 -191 23
-27 50 -59 60 -71 10 -12 27 -32 37 -45 10 -12 44 -52 75 -88 31 -36 77 -90
101 -120 25 -30 50 -59 56 -65 9 -9 140 -164 184 -219 8 -10 20 -23 25 -30 6
-6 35 -40 65 -76 30 -36 57 -67 60 -70 3 -3 30 -34 60 -70 30 -36 59 -68 65
-72 5 -4 7 -8 3 -8 -3 0 8 -15 25 -33 18 -18 50 -56 72 -83 22 -27 55 -65 72
-84 l32 -35 1 205 0 205 -76 90 c-41 50 -85 101 -97 115 -12 14 -47 54 -77 90
-30 36 -62 74 -70 83 -8 10 -19 23 -25 30 -5 7 -26 30 -45 52 -19 22 -53 62
-75 89 -22 27 -45 54 -50 60 -6 6 -33 38 -60 71 -28 33 -54 65 -60 71 -5 6
-25 29 -43 52 -19 23 -44 52 -56 65 -12 13 -40 46 -61 73 -22 27 -49 58 -60
70 -11 11 -38 43 -60 70 -62 77 -113 126 -124 119 -18 -11 -79 23 -94 52 -28
52 -23 108 12 144 78 81 201 27 201 -88 0 -33 11 -50 76 -128 42 -49 95 -112
118 -139 22 -27 46 -54 51 -60 6 -6 32 -38 59 -71 28 -33 57 -67 65 -76 9 -9
23 -25 31 -36 19 -24 163 -196 170 -203 10 -10 75 -86 120 -140 25 -29 61 -72
80 -95 19 -23 51 -61 70 -85 19 -24 42 -51 51 -59 8 -9 37 -43 65 -76 27 -33
52 -62 55 -65 22 -19 26 -69 26 -337 l0 -292 48 -58 c27 -32 56 -66 64 -75 9
-9 32 -36 51 -59 95 -114 88 -109 144 -109 l52 0 0 615 -1 615 -35 21 c-116
71 -134 217 -39 310 155 152 403 -31 308 -227 -20 -42 -76 -94 -101 -94 -11 0
-13 -113 -13 -618 l0 -617 201 -3 202 -2 1 750 c0 412 -3 750 -8 750 -17 0
-85 78 -104 120 -30 67 -31 164 -1 226 46 98 125 153 230 162 113 9 210 -47
267 -153 26 -49 31 -191 8 -218 -7 -10 -10 -17 -7 -17 4 0 -3 -15 -15 -32 -26
-37 -77 -88 -88 -88 -4 0 -7 -338 -7 -750 l0 -750 201 2 200 3 1 613 1 613
-30 16 c-132 68 -142 250 -20 337 33 23 54 29 103 31 54 3 66 -1 108 -29 81
-54 114 -154 79 -237 -17 -40 -69 -96 -100 -108 l-22 -9 0 -613 0 -614 55 -2
55 -3 88 108 c48 59 101 123 118 142 17 19 47 55 68 79 42 51 103 125 135 161
11 14 36 43 55 65 18 22 54 64 80 94 25 30 63 75 84 100 22 25 56 66 77 91 21
25 57 68 80 95 23 28 54 64 69 80 14 17 48 57 75 90 27 33 57 67 65 76 9 9 41
47 71 84 30 37 65 78 78 91 12 13 22 25 22 28 0 3 10 16 23 28 22 23 60 68
118 139 17 21 41 49 52 62 12 12 40 45 62 72 22 27 58 70 80 95 22 26 60 71
85 100 90 107 105 125 116 136 5 6 26 30 45 54 41 51 96 115 127 148 12 14 22
32 23 41 0 9 2 24 4 33 2 10 6 59 10 110 4 51 8 111 11 133 2 22 6 72 9 110 3
39 7 88 10 110 l5 40 -22 -26 c-13 -15 -39 -45 -58 -68 -19 -24 -46 -55 -60
-70 -14 -15 -41 -47 -60 -71 -19 -24 -40 -48 -45 -54 -9 -9 -118 -138 -187
-221 -9 -11 -51 -60 -93 -110 -42 -49 -89 -105 -103 -123 -15 -19 -38 -46 -52
-61 -14 -15 -41 -46 -60 -70 -19 -24 -40 -49 -47 -55 -6 -7 -35 -42 -64 -77
-29 -35 -58 -69 -64 -75 -5 -6 -26 -30 -45 -53 -19 -23 -43 -52 -53 -64 -10
-12 -28 -33 -40 -47 -12 -14 -44 -52 -72 -85 -27 -33 -58 -69 -68 -80 -10 -11
-53 -62 -95 -113 -42 -50 -80 -92 -84 -92 -4 0 -8 -4 -8 -9 0 -6 -16 -27 -35
-48 -27 -29 -34 -46 -33 -73 2 -50 -16 -87 -54 -110 -37 -22 -62 -25 -104 -10
-57 21 -90 106 -62 159 16 29 60 64 85 66 42 4 63 22 158 137 55 66 107 128
115 138 25 29 93 109 126 148 17 20 148 175 290 343 143 169 275 326 294 349
19 24 44 52 55 64 11 12 40 46 65 76 25 30 47 57 50 60 3 3 39 45 80 95 41 49
84 99 95 111 11 12 49 57 85 100 35 44 67 81 70 84 3 3 28 32 55 65 28 33 53
62 56 65 3 3 6 12 6 20 0 8 3 47 6 85 4 39 9 102 12 140 3 39 8 85 10 103 3
18 0 32 -5 32 -6 0 -10 -4 -10 -9 0 -5 -13 -22 -28 -37 -16 -16 -64 -72 -108
-124 -43 -52 -83 -100 -89 -106 -5 -6 -25 -29 -43 -52 -19 -23 -43 -51 -54
-64 -11 -13 -37 -43 -57 -68 -20 -24 -43 -51 -51 -60 -8 -9 -33 -38 -55 -65
-36 -43 -154 -182 -180 -211 -5 -6 -28 -33 -50 -60 -22 -26 -56 -67 -75 -89
-19 -23 -53 -63 -75 -89 -48 -58 -103 -122 -130 -152 -11 -12 -58 -67 -103
-122 -47 -57 -98 -107 -117 -116 -29 -14 -99 -16 -525 -16 -432 0 -496 2 -526
16 -19 9 -34 19 -34 23 0 3 -15 22 -33 42 -17 20 -52 60 -77 89 -25 30 -86
102 -137 162 -51 60 -103 122 -116 139 -20 26 -30 30 -80 32 -31 1 -57 0 -57
-3 0 -3 -15 -21 -33 -41 -17 -19 -50 -57 -72 -83 -22 -27 -48 -58 -59 -70 -10
-11 -35 -41 -55 -66 -20 -24 -43 -51 -51 -60 -8 -9 -37 -43 -65 -75 -67 -78
-74 -85 -102 -96 -39 -15 -1009 -12 -1036 4 -35 19 -49 34 -222 242 -55 66
-102 122 -105 125 -3 3 -41 48 -85 100 -44 52 -82 97 -85 100 -3 3 -30 34 -60
70 -30 36 -57 67 -60 70 -3 3 -25 30 -50 60 -25 30 -49 60 -55 66 -5 6 -28 32
-50 59 -22 26 -52 62 -67 79 -15 17 -69 81 -120 142 -232 275 -261 309 -270
312 -5 2 -7 -7 -4 -20z"/>
<path d="M3609 2894 c-167 -50 -184 -286 -27 -363 142 -68 292 44 275 206 -3
32 -11 59 -17 61 -5 2 -10 9 -10 16 0 15 -38 49 -77 69 -43 23 -93 27 -144 11z"/>
<path d="M3556 1896 c-125 -95 -108 -275 33 -342 76 -37 187 -4 238 69 24 35
28 50 28 111 0 63 -3 76 -30 113 -62 88 -187 110 -269 49z"/>
</g>
</svg>
